<?xml version="1.0" standalone="no"?>
<!DOCTYPE svg PUBLIC "-//W3C//DTD SVG 20010904//EN"
 "http://www.w3.org/TR/2001/REC-SVG-20010904/DTD/svg10.dtd">
<svg version="1.0" xmlns="http://www.w3.org/2000/svg"
 width="275.000000pt" height="272.000000pt" viewBox="0 0 275.000000 272.000000"
 preserveAspectRatio="xMidYMid meet">

<g transform="translate(0.000000,272.000000) scale(0.100000,-0.100000)"
fill="#000000" stroke="none">
<path d="M0 1360 l0 -1360 1375 0 1375 0 0 1360 0 1360 -1375 0 -1375 0 0
-1360z m1638 1132 c114 -36 180 -100 223 -217 22 -57 23 -79 28 -497 6 -420 7
-437 27 -465 11 -15 24 -34 28 -40 6 -10 -41 -13 -219 -13 l-225 0 -38 34 -37
34 -6 484 c-6 549 -3 530 -94 627 l-46 49 48 10 c85 17 244 14 311 -6z m-478
-38 c0 -3 -11 -15 -25 -26 -18 -14 -25 -29 -25 -53 l0 -33 58 1 c70 1 118 -20
151 -68 44 -65 38 -155 -13 -214 -27 -31 -117 -71 -160 -71 -120 0 -236 114
-236 231 0 97 44 169 130 214 41 22 120 34 120 19z m152 -809 l3 -303 28 -38
27 -39 -136 -3 c-103 -2 -151 1 -193 14 -172 49 -253 152 -253 324 -1 198 100
310 309 342 44 7 110 11 146 10 l66 -4 3 -303z m-898 -364 c21 -22 50 -42 65
-46 14 -4 188 -10 386 -14 341 -6 362 -7 400 -28 85 -45 116 -105 123 -241 l5
-103 -27 11 c-15 5 -37 16 -49 22 -16 10 -123 15 -387 19 -421 6 -429 8 -515
94 -55 54 -75 102 -75 178 0 50 20 147 30 147 3 0 23 -18 44 -39z m2051 -46
c16 -167 -26 -246 -163 -308 -43 -19 -67 -21 -272 -24 -124 -2 -234 -6 -245
-8 -18 -4 -20 -11 -17 -59 3 -44 8 -56 23 -61 26 -8 25 -56 -1 -80 -17 -16
-20 -31 -20 -110 0 -110 8 -155 26 -155 10 0 14 -13 14 -40 l0 -40 -48 0 c-80
0 -86 13 -90 190 -3 136 -5 148 -23 153 -25 7 -24 37 1 70 11 14 20 39 20 56
0 18 9 40 20 51 18 18 18 21 4 27 -33 13 -179 -4 -222 -26 -53 -27 -57 -20
-49 90 7 90 32 156 74 195 64 59 58 58 448 64 339 5 363 6 405 26 25 12 54 31
64 43 34 37 44 27 51 -54z m-1889 -461 c19 -9 39 -24 43 -33 5 -9 11 -98 12
-199 l4 -183 -65 0 c-36 0 -91 -1 -123 -2 -53 -2 -61 1 -83 26 -19 22 -24 40
-24 79 0 73 26 110 103 147 66 30 96 68 74 90 -18 18 -35 13 -69 -19 -30 -29
-90 -42 -101 -22 -12 20 21 88 52 109 41 28 126 31 177 7z m308 1 c36 -17 50
-37 60 -82 10 -43 -21 -76 -67 -71 -28 3 -33 7 -37 38 -4 29 -9 35 -30 35
l-25 0 -3 -128 -3 -128 28 3 c24 3 29 8 33 43 l5 40 50 0 50 0 -1 -53 c-1 -36
-8 -60 -20 -74 -66 -72 -201 -62 -239 18 -13 29 -16 60 -13 169 3 126 4 135
28 160 14 15 34 31 45 35 33 14 105 11 139 -5z m331 -1 c39 -18 65 -73 65
-136 0 -64 -19 -78 -104 -78 -39 0 -77 -4 -85 -9 -19 -12 -8 -91 15 -108 25
-19 33 -17 64 17 34 36 80 49 99 26 17 -20 0 -75 -35 -107 -22 -21 -35 -24
-99 -24 -131 0 -159 43 -153 237 3 126 15 158 69 185 34 18 125 16 164 -3z
m882 -10 c39 -29 51 -76 51 -194 0 -160 -24 -203 -124 -219 -57 -8 -122 9
-150 41 -17 18 -19 38 -19 177 0 171 1 174 62 207 40 21 144 14 180 -12z m317
-3 c28 -27 51 -84 42 -106 -3 -8 -14 -15 -25 -15 -28 0 -71 21 -71 35 0 6 -11
18 -25 25 -19 10 -27 10 -39 1 -24 -20 -6 -47 62 -90 75 -49 102 -89 102 -152
0 -51 -20 -82 -64 -99 -39 -14 -111 -12 -151 4 -63 27 -85 118 -31 132 38 9
61 1 64 -24 5 -31 45 -50 67 -32 29 24 12 52 -65 104 -41 28 -80 63 -87 76
-27 54 -6 126 45 155 42 24 144 16 176 -14z m-858 1 c39 -31 44 -55 44 -227
l0 -165 -27 -11 c-15 -5 -36 -9 -47 -7 -20 3 -21 11 -27 168 -3 91 -6 166 -7
168 -1 1 -15 2 -32 2 -16 0 -31 -1 -31 -2 -1 -2 -5 -74 -8 -161 -6 -170 -9
-177 -63 -177 -15 0 -30 4 -33 10 -3 5 -6 94 -6 197 0 167 2 189 17 200 22 16
71 17 76 1 3 -8 11 -7 28 5 31 22 89 21 116 -1z m-1030 -512 c9 0 14 -11 14
-35 0 -24 -5 -35 -15 -35 -8 0 -18 0 -22 0 -10 0 -14 51 -6 80 5 19 7 21 10 8
3 -10 11 -18 19 -18z m1434 -19 c0 -41 -3 -50 -21 -54 -14 -4 -23 1 -28 16 -8
22 5 64 16 53 3 -3 1 -12 -6 -19 -9 -11 -8 -17 4 -27 13 -11 15 -7 15 27 0 35
6 53 17 53 2 0 3 -22 3 -49z m-1523 -28 c-2 -16 -4 -5 -4 22 0 28 2 40 4 28 2
-13 2 -35 0 -50z m406 26 c-2 -57 -13 -62 -13 -6 0 26 3 47 8 47 4 0 6 -18 5
-41z m237 -34 c9 0 17 13 21 35 l6 35 2 -42 c1 -39 -1 -43 -23 -43 -27 0 -37
17 -35 63 2 29 2 28 8 -8 4 -26 11 -40 21 -40z m1018 68 c-21 -5 -24 -19 -5
-26 9 -3 9 -7 -1 -20 -11 -13 -10 -17 5 -26 16 -9 16 -10 -4 -11 -21 0 -23 5
-23 45 0 40 2 45 23 44 16 -1 18 -2 5 -6z m106 -9 c10 -25 7 -69 -3 -59 -5 6
-11 19 -14 30 -4 15 -5 13 -6 -7 -1 -32 -21 -39 -21 -7 0 24 17 59 29 59 5 0
12 -7 15 -16z m89 9 c-8 -2 -13 -22 -13 -44 0 -21 -4 -39 -10 -39 -5 0 -10 20
-10 45 0 40 2 45 23 44 12 0 16 -3 10 -6z m64 -60 c-2 -16 -4 -5 -4 22 0 28 2
40 4 28 2 -13 2 -35 0 -50z m96 59 c-6 -4 -13 -25 -15 -47 l-3 -40 -5 48 c-5
42 -3 47 15 47 13 0 16 -3 8 -8z m-2075 -75 c12 -3 11 -5 -5 -6 -21 -1 -23 3
-21 42 l1 42 4 -37 c3 -24 10 -38 21 -41z m1382 58 c0 -8 -7 -15 -15 -15 -8 0
-15 -7 -15 -15 0 -8 7 -15 15 -15 17 0 20 -16 5 -25 -15 -9 -40 13 -40 35 0
10 10 25 23 33 28 20 27 20 27 2z m-1148 -35 c-6 -39 -17 -39 -16 0 2 40 3 42
12 36 5 -3 7 -19 4 -36z m98 20 c0 -11 -7 -20 -15 -20 -21 0 -19 -18 3 -23 10
-3 6 -5 -10 -6 -24 -1 -28 3 -28 27 0 33 7 42 32 42 11 0 18 -7 18 -20z m69 8
c0 -7 -4 -22 -9 -33 -7 -17 -9 -15 -9 13 -1 17 4 32 9 32 6 0 10 -6 9 -12z
m431 -29 c0 -16 -5 -29 -11 -29 -6 0 -9 9 -6 20 3 11 1 23 -4 26 -5 3 -9 -6
-9 -20 0 -14 -4 -26 -10 -26 -10 0 -14 53 -4 62 3 3 14 4 25 1 13 -4 19 -14
19 -34z m70 0 c0 -16 -4 -29 -10 -29 -5 0 -10 16 -10 36 0 21 4 33 10 29 6 -3
10 -19 10 -36z m164 35 c20 -8 21 -34 1 -34 -18 0 -20 -16 -2 -23 6 -3 2 -6
-10 -6 -19 -1 -23 4 -23 27 0 39 7 46 34 36z m-504 -32 c0 -16 -3 -31 -6 -35
-10 -10 -34 4 -34 20 0 8 5 11 11 7 8 -4 9 0 4 15 -5 15 -2 21 9 21 11 0 16
-9 16 -28z m584 20 c-7 -4 -14 -16 -17 -27 -4 -15 -5 -14 -6 8 -1 20 4 27 17
27 11 0 13 -3 6 -8z m86 -33 c0 -3 -6 -11 -13 -17 -10 -9 -13 -3 -14 26 -1 34
0 35 13 17 8 -10 14 -22 14 -26z m250 6 c0 -39 -18 -47 -41 -18 -12 15 -12 16
4 10 14 -5 16 -2 11 18 -5 19 -2 25 10 25 12 0 16 -10 16 -35z m-502 3 c-5
-32 -28 -35 -28 -4 0 17 5 26 16 26 10 0 14 -7 12 -22z"/>
<path d="M478 537 c-60 -51 -35 -134 28 -92 20 13 24 24 24 65 0 57 -10 62
-52 27z"/>
<path d="M1096 688 c-27 -37 -20 -48 28 -48 53 0 64 12 42 45 -20 31 -50 32
-70 3z"/>
<path d="M1962 698 c-8 -8 -12 -51 -12 -128 0 -122 6 -140 45 -140 39 0 45 18
45 140 0 122 -6 140 -45 140 -12 0 -26 -5 -33 -12z"/>
<path d="M510 204 c0 -8 5 -12 10 -9 6 3 10 10 10 16 0 5 -4 9 -10 9 -5 0 -10
-7 -10 -16z"/>
</g>
</svg>
